<svg width="160" height="160" viewBox="0 0 160 160" fill="none" xmlns="http://www.w3.org/2002/svg">
  <defs>
    <linearGradient id="avotonix-gradient" x1="32" y1="22" x2="132" y2="150" gradientUnits="userSpaceOnUse">
      <stop offset="0" stop-color="#4F8BFD" />
      <stop offset="0.35" stop-color="#5A6FFF" />
      <stop offset="0.7" stop-color="#6D50F5" />
      <stop offset="1" stop-color="#8B5CF6" />
    </linearGradient>
    <linearGradient id="signal-fill" x1="114" y1="40" x2="136" y2="84" gradientUnits="userSpaceOnUse">
      <stop offset="0" stop-color="#A6C6FF" />
      <stop offset="1" stop-color="#DCCBFF" />
    </linearGradient>
    <filter id="logo-glow" x="-40" y="-40" width="240" height="240" filterUnits="userSpaceOnUse" color-interpolation-filters="sRGB">
      <feGaussianBlur stdDeviation="18" result="blur" />
      <feBlend in="SourceGraphic" in2="blur" mode="screen" />
    </filter>
  </defs>
  <g filter="url(#logo-glow)">
    <path
      d="M80 22c-7 0-13.5 4.1-16.5 10.4L28.2 120.4C23.8 129.6 30.6 140 40.7 140h20.4c3.8 0 7.2-2.2 8.8-5.6l11.4-24h27.4l11.4 24c1.6 3.4 5 5.6 8.8 5.6h20.4c10.1 0 16.9-10.4 12.5-19.6L96.5 32.4C93.5 26.1 87 22 80 22Zm0 42.4L97.5 98H62.5L80 64.4Z"
      fill="url(#avotonix-gradient)"
    />
    <path
      d="M60.2 114c-12 0-21.7 9.6-21.7 21.6 0 9.6 6.1 17.8 15 20.6l11.3 3.7c3.4 1.1 6.8-1.6 6.8-5.2V128c0-7.7-5.9-14-13.2-14h-1.4l3.2-7.6c1.4-3.3-1-7-4.6-7Z"
      fill="url(#avotonix-gradient)"
    />
  </g>
  <circle cx="116" cy="52" r="14" fill="url(#signal-fill)" />
  <g stroke="url(#signal-fill)" stroke-width="6" stroke-linecap="round" fill="none">
    <path d="M128 52c8 7.8 8 21.2 0 29" opacity="0.85" />
    <path d="M138 48c11.6 11.2 11.6 33.8 0 45" opacity="0.55" />
  </g>
</svg>
